<svg width="20" height="20" viewBox="0 0 24 24" fill="none" xmlns="http://www.w3.org/2000/svg">
  <path d="M12 2C6.477 2 2 6.477 2 12C2 16.418 4.865 20.166 8.839 21.489C9.339 21.581 9.5 21.278 9.5 21.012C9.5 20.777 9.492 20.014 9.489 19.181C6.727 19.792 6.139 17.949 6.139 17.949C5.684 16.811 5.019 16.509 5.019 16.509C4.097 15.895 5.086 15.908 5.086 15.908C6.108 15.976 6.636 16.92 6.636 16.92C7.545 18.421 9.007 18.007 9.516 17.751C9.609 17.116 9.876 16.703 10.171 16.419C7.958 16.13 5.631 15.278 5.631 11.469C5.631 10.337 6.013 9.406 6.656 8.669C6.54 8.416 6.2 7.443 6.756 6.088C6.756 6.088 7.617 5.818 9.456 7.061C10.268 6.844 11.131 6.735 11.994 6.731C12.857 6.735 13.72 6.844 14.532 7.061C16.371 5.818 17.232 6.088 17.232 6.088C17.788 7.443 17.448 8.416 17.332 8.669C17.975 9.406 18.357 10.337 18.357 11.469C18.357 15.289 16.026 16.126 13.806 16.409C14.171 16.763 14.5 17.466 14.5 18.531C14.5 20.046 14.488 20.677 14.488 21.008C14.488 21.27 14.639 21.577 15.159 21.475C19.158 20.168 22 16.416 22 12C22 6.477 17.523 2 12 2Z" fill="currentColor"/>
</svg> 