<svg width="20" height="20" viewBox="0 0 24 24" fill="none" xmlns="http://www.w3.org/2000/svg">
  <path d="M4.5 7.5C4.5 6.67157 5.17157 6 6 6H7.5C8.32843 6 9 6.67157 9 7.5V9C9 9.82843 8.32843 10.5 7.5 10.5H6C5.17157 10.5 4.5 9.82843 4.5 9V7.5Z" fill="currentColor"/>
  <path d="M12 4.5H19.5C20.3284 4.5 21 5.17157 21 6V7.5C21 8.32843 20.3284 9 19.5 9H12V4.5Z" fill="currentColor"/>
  <path d="M12 10.5H19.5C20.3284 10.5 21 11.1716 21 12V13.5C21 14.3284 20.3284 15 19.5 15H12V10.5Z" fill="currentColor"/>
  <path d="M12 16.5H19.5C20.3284 16.5 21 17.1716 21 18V19.5C21 20.3284 20.3284 21 19.5 21H12V16.5Z" fill="currentColor"/>
  <path d="M4.5 13.5C4.5 12.6716 5.17157 12 6 12H7.5C8.32843 12 9 12.6716 9 13.5V15C9 15.8284 8.32843 16.5 7.5 16.5H6C5.17157 16.5 4.5 15.8284 4.5 15V13.5Z" fill="currentColor"/>
  <path d="M4.5 19.5C4.5 18.6716 5.17157 18 6 18H7.5C8.32843 18 9 18.6716 9 19.5V21C9 21.8284 8.32843 22.5 7.5 22.5H6C5.17157 22.5 4.5 21.8284 4.5 21V19.5Z" fill="currentColor"/>
</svg> 